<svg class="svg-icon" style="width: 1em; height: 1em;vertical-align: middle;fill: currentColor;overflow: hidden;" viewBox="0 0 1024 1024" version="1.1" xmlns="http://www.w3.org/2000/svg"><path d="M952.52275 496.376064c-6.026053-9.051497-151.236089-221.765066-442.096433-221.765066-290.828734 0-436.041028 212.713569-442.094174 221.765066a27.935688 27.935688 0 0 0 0 30.96339c6.053146 9.049239 151.265441 221.765066 442.094174 221.765066 290.858085 0 436.07038-212.715827 442.096433-221.765066a27.827314 27.827314 0 0 0 0-30.96339z m-442.096433 196.906751c-216.490859 0-345.776672-135.058994-383.791154-181.481501 37.876756-46.512819 166.482974-181.366354 383.791154-181.366353 216.522468 0 345.776672 135.058994 383.793412 181.476985-37.874498 46.512819-166.480716 181.370869-383.793412 181.370869z" fill="#040000" /><path d="M510.426317 386.256665c-69.291705 0-125.659796 56.340997-125.659796 125.601094 0 69.262354 56.368091 125.601094 125.659796 125.601094 69.291705 0 125.659796-56.33874 125.659797-125.601094 0-69.260096-56.365833-125.601094-125.659797-125.601094z m0 195.378225c-38.477329 0-69.80874-31.306575-69.80874-69.777131 0-38.475072 31.331411-69.779389 69.80874-69.779389 38.506681 0 69.810998 31.304317 69.810998 69.779389 0 38.470556-31.304317 69.777131-69.810998 69.777131z" fill="#040000" /></svg>